<?xml version="1.0" encoding="UTF-8"?>
<svg xmlns="http://www.w3.org/2000/svg" xmlns:xlink="http://www.w3.org/1999/xlink" width="40px" height="40px" viewBox="0 0 40 40" version="1.1">
<g id="surface1">
<path style=" stroke:none;fill-rule:nonzero;fill:rgb(39.607843%,38.823529%,100%);fill-opacity:1;" d="M 29.269531 35.933594 C 29 35.933594 28.734375 35.867188 28.496094 35.742188 L 20 31.273438 L 11.503906 35.742188 C 10.941406 36.035156 10.261719 35.988281 9.75 35.613281 C 9.234375 35.242188 8.980469 34.609375 9.085938 33.984375 L 10.707031 24.523438 L 3.835938 17.828125 C 3.382812 17.382812 3.21875 16.722656 3.414062 16.117188 C 3.609375 15.515625 4.132812 15.074219 4.761719 14.984375 L 14.257812 13.601562 L 18.503906 4.996094 C 18.816406 4.46875 19.386719 4.144531 20 4.144531 C 20.613281 4.144531 21.183594 4.46875 21.496094 4.996094 L 25.742188 13.601562 L 35.238281 14.984375 C 35.867188 15.074219 36.390625 15.515625 36.585938 16.117188 C 36.78125 16.722656 36.617188 17.382812 36.164062 17.828125 L 29.292969 24.523438 L 30.914062 33.984375 C 30.996094 34.46875 30.863281 34.964844 30.546875 35.339844 C 30.226562 35.714844 29.761719 35.933594 29.269531 35.933594 Z M 29.269531 35.933594 "/>
</g>
</svg>
